<svg width="200" height="220" viewBox="0 0 200 220" xmlns="http://www.w3.org/2000/svg">
  <!-- Body: kimono + obi -->
  <path d="M40 200 L52 138 Q54 130 66 128 L134 128 Q146 130 148 138 L160 200 Z" fill="#B23535"/>
  <path d="M52 138 Q54 130 66 128 L86 128 L100 152 L114 128 L134 128 Q146 130 148 138" fill="none" stroke="#F5F0E3" stroke-width="2.5"/>
  <path d="M86 128 L100 158 L114 128 L114 134 L100 168 L86 134 Z" fill="#F5F0E3"/>
  <path d="M86 128 L100 158 L114 128" stroke="#7A1F1F" stroke-width="0.6" fill="none" opacity="0.6"/>
  <rect x="48" y="170" width="104" height="16" fill="#1C1C1E"/>
  <rect x="48" y="170" width="104" height="2" fill="#E8B04B" opacity="0.6"/>
  <rect x="48" y="184" width="104" height="2" fill="#E8B04B" opacity="0.4"/>
  <g transform="translate(100,178)">
    <path d="M-10 0 Q-6 -5 0 -3 Q6 -5 10 0 Q6 5 0 3 Q-6 5 -10 0 Z" fill="#E8B04B"/>
    <circle r="2" fill="#B23535"/>
  </g>
  <path d="M52 138 L46 200" stroke="#7A1F1F" stroke-width="1" opacity="0.4"/>
  <path d="M148 138 L154 200" stroke="#7A1F1F" stroke-width="1" opacity="0.4"/>
  <!-- Greet pose: right arm bent at obi, left arm down -->
  <path d="M148 140 Q166 150 168 168 L160 174 Q156 162 142 154 Z" fill="#B23535"/>
  <path d="M148 140 Q166 150 168 168" stroke="#F5F0E3" stroke-width="1.5" fill="none"/>
  <ellipse cx="162" cy="172" rx="5" ry="4" fill="#F4D9C0"/>
  <path d="M52 140 Q40 170 44 200 L56 198 Q54 174 60 144 Z" fill="#B23535"/>
  <path d="M52 140 Q40 170 44 200" stroke="#F5F0E3" stroke-width="1.5" fill="none"/>
  <!-- Hair back (long, flowing) -->
  <path d="M48 86 Q42 50 64 32 Q82 22 100 22 Q118 22 136 32 Q158 50 152 90 L156 156 Q150 168 142 174 L142 138 L58 138 L58 174 Q50 168 44 156 Z" fill="#1A1816"/>
  <path d="M70 56 Q90 40 110 44 Q104 48 92 52 Q80 56 72 64 Z" fill="#3A3530" opacity="0.6"/>
  <!-- Neck -->
  <path d="M91 122 Q91 134 92 138 L108 138 Q109 134 109 122 Z" fill="#F4D9C0"/>
  <path d="M91 132 L109 132" stroke="#E5BFA0" stroke-width="0.8" fill="none" opacity="0.5"/>
  <!-- Face oval -->
  <path d="M70 88 Q70 64 84 56 Q92 52 100 52 Q108 52 116 56 Q130 64 130 88 Q130 110 122 120 Q112 128 100 128 Q88 128 78 120 Q70 110 70 88 Z" fill="#F4D9C0"/>
  <path d="M82 118 Q92 126 108 124 Q116 121 120 116" stroke="#E5BFA0" stroke-width="0.7" fill="none" opacity="0.4"/>
  <!-- Hair front bangs -->
  <path d="M64 78 Q62 50 84 40 Q96 36 108 38 Q126 42 132 60 Q133 72 132 84 Q128 70 116 66 L114 86 Q108 70 100 70 Q92 70 88 84 L86 64 Q74 64 64 78 Z" fill="#1A1816"/>
  <path d="M64 80 Q60 100 64 124 Q66 110 68 100 Q66 90 64 80 Z" fill="#1A1816"/>
  <path d="M132 80 Q138 102 134 124 Q132 110 130 100 Q132 90 132 80 Z" fill="#1A1816"/>
  <path d="M88 64 Q92 70 96 80" stroke="#1A1816" stroke-width="1" fill="none" stroke-linecap="round"/>
  <!-- Eye socket shadows -->
  <path d="M80 90 Q86 88 92 90" stroke="#E5BFA0" stroke-width="0.6" fill="none" opacity="0.5"/>
  <path d="M108 90 Q114 88 120 90" stroke="#E5BFA0" stroke-width="0.6" fill="none" opacity="0.5"/>
  <!-- Eyebrows -->
  <path d="M80 84 Q86 80 94 83" stroke="#1A1816" stroke-width="1.6" fill="none" stroke-linecap="round"/>
  <path d="M106 83 Q114 80 120 84" stroke="#1A1816" stroke-width="1.6" fill="none" stroke-linecap="round"/>
  <!-- Left eye -->
  <path d="M82 94 Q88 90 95 92 Q98 96 95 100 Q88 102 83 100 Q80 97 82 94 Z" fill="white"/>
  <path d="M82 94 Q88 90 95 92" stroke="#2D2A26" stroke-width="1.6" fill="none" stroke-linecap="round"/>
  <path d="M83 100 Q88 102 95 100" stroke="#2D2A26" stroke-width="0.9" fill="none" stroke-linecap="round" opacity="0.6"/>
  <ellipse cx="89" cy="96" rx="2.8" ry="3.6" fill="#6B4A28"/>
  <ellipse cx="89" cy="96" rx="1.6" ry="2.2" fill="#2D2A26"/>
  <circle cx="90" cy="94.5" r="0.9" fill="white"/>
  <circle cx="87.5" cy="98" r="0.4" fill="white" opacity="0.7"/>
  <path d="M82 94 L80 92" stroke="#2D2A26" stroke-width="1.2" stroke-linecap="round"/>
  <path d="M85 92 L84 90" stroke="#2D2A26" stroke-width="1" stroke-linecap="round"/>
  <!-- Right eye -->
  <path d="M105 92 Q112 90 118 94 Q120 97 117 100 Q112 102 105 100 Q102 96 105 92 Z" fill="white"/>
  <path d="M105 92 Q112 90 118 94" stroke="#2D2A26" stroke-width="1.6" fill="none" stroke-linecap="round"/>
  <path d="M105 100 Q112 102 117 100" stroke="#2D2A26" stroke-width="0.9" fill="none" stroke-linecap="round" opacity="0.6"/>
  <ellipse cx="111" cy="96" rx="2.8" ry="3.6" fill="#6B4A28"/>
  <ellipse cx="111" cy="96" rx="1.6" ry="2.2" fill="#2D2A26"/>
  <circle cx="112" cy="94.5" r="0.9" fill="white"/>
  <circle cx="109.5" cy="98" r="0.4" fill="white" opacity="0.7"/>
  <path d="M118 94 L120 92" stroke="#2D2A26" stroke-width="1.2" stroke-linecap="round"/>
  <path d="M115 92 L116 90" stroke="#2D2A26" stroke-width="1" stroke-linecap="round"/>
  <!-- Nose hint -->
  <path d="M99 102 Q98 108 101 110" stroke="#E5BFA0" stroke-width="0.8" fill="none" stroke-linecap="round" opacity="0.7"/>
  <!-- Lips -->
  <path d="M94 116 Q100 119 106 116" stroke="#A8323A" stroke-width="1.4" fill="none" stroke-linecap="round"/>
  <path d="M96 117 Q100 118 104 117" stroke="#C95A60" stroke-width="0.5" fill="none" stroke-linecap="round" opacity="0.7"/>
  <!-- Blush -->
  <ellipse cx="80" cy="108" rx="4" ry="1.6" fill="#E89B95" opacity="0.35"/>
  <ellipse cx="120" cy="108" rx="4" ry="1.6" fill="#E89B95" opacity="0.35"/>
  <!-- Kanzashi (hair pin) -->
  <g transform="translate(124,58)">
    <line x1="0" y1="0" x2="-2" y2="14" stroke="#E8B04B" stroke-width="1.4"/>
    <circle r="3.5" fill="#B23535"/>
    <circle r="3.5" fill="none" stroke="#E8B04B" stroke-width="0.8"/>
    <circle r="1.4" fill="#E8B04B"/>
  </g>
  <!-- Earrings -->
  <circle cx="68" cy="106" r="1.5" fill="#E8B04B"/>
  <circle cx="132" cy="106" r="1.5" fill="#E8B04B"/>
</svg>
